<svg version="1.1" viewBox="0.0 0.0 600.0 371.0" fill="none" stroke="none" stroke-linecap="square" stroke-miterlimit="10" width="600" height="371" xmlns:xlink="http://www.w3.org/1999/xlink" xmlns="http://www.w3.org/2000/svg"><path fill="#ffffff" d="M0 0L600.0 0L600.0 371.0L0 371.0L0 0Z" fill-rule="nonzero"/><path stroke="#333333" stroke-width="1.0" stroke-linecap="butt" d="M45.5 332.5L581.5 332.5" fill-rule="nonzero"/><path stroke="#cccccc" stroke-width="1.0" stroke-linecap="butt" d="M45.5 271.5L581.5 271.5" fill-rule="nonzero"/><path stroke="#cccccc" stroke-width="1.0" stroke-linecap="butt" d="M45.5 210.5L581.5 210.5" fill-rule="nonzero"/><path stroke="#cccccc" stroke-width="1.0" stroke-linecap="butt" d="M45.5 149.5L581.5 149.5" fill-rule="nonzero"/><path stroke="#cccccc" stroke-width="1.0" stroke-linecap="butt" d="M45.5 88.5L581.5 88.5" fill-rule="nonzero"/><clipPath id="id_0"><path d="M45.55 88.28333L581.45 88.28333L581.45 332.45L45.55 332.45L45.55 88.28333Z" clip-rule="nonzero"/></clipPath><path stroke="#5891ad" stroke-width="2.0" stroke-linecap="butt" clip-path="url(#id_0)" d="M99.14 301.92917L206.32 195.10625L313.5 149.325L420.68 195.10625L527.86 240.8875" fill-rule="nonzero"/><path stroke="#004561" stroke-width="2.0" stroke-linecap="butt" clip-path="url(#id_0)" d="M99.14 103.54375L206.32 149.325L313.5 195.10625L420.68 271.40833L527.86 301.92917" fill-rule="nonzero"/><path fill="#000000" fill-opacity="0.0" clip-path="url(#id_0)" d="M102.14 301.92917C102.14 303.58603 100.79685 304.92917 99.14 304.92917C97.48315 304.92917 96.14 303.58603 96.14 301.92917C96.14 300.2723 97.48315 298.92917 99.14 298.92917C100.79685 298.92917 102.14 300.2723 102.14 301.92917Z" fill-rule="nonzero"/><path fill="#000000" fill-opacity="0.0" clip-path="url(#id_0)" d="M209.32 195.10625C209.32 196.7631 207.97685 198.10625 206.32 198.10625C204.66315 198.10625 203.32 196.7631 203.32 195.10625C203.32 193.4494 204.66315 192.10625 206.32 192.10625C207.97685 192.10625 209.32 193.4494 209.32 195.10625Z" fill-rule="nonzero"/><path fill="#000000" fill-opacity="0.0" clip-path="url(#id_0)" d="M316.5 149.325C316.5 150.98186 315.15686 152.325 313.5 152.325C311.84314 152.325 310.5 150.98186 310.5 149.325C310.5 147.66815 311.84314 146.325 313.5 146.325C315.15686 146.325 316.5 147.66815 316.5 149.325Z" fill-rule="nonzero"/><path fill="#000000" fill-opacity="0.0" clip-path="url(#id_0)" d="M423.68 195.10625C423.68 196.7631 422.33685 198.10625 420.68 198.10625C419.02313 198.10625 417.68 196.7631 417.68 195.10625C417.68 193.4494 419.02313 192.10625 420.68 192.10625C422.33685 192.10625 423.68 193.4494 423.68 195.10625Z" fill-rule="nonzero"/><path fill="#000000" fill-opacity="0.0" clip-path="url(#id_0)" d="M530.86 240.8875C530.86 242.54436 529.51685 243.8875 527.86 243.8875C526.2031 243.8875 524.86 242.54436 524.86 240.8875C524.86 239.23065 526.2031 237.8875 527.86 237.8875C529.51685 237.8875 530.86 239.23065 530.86 240.8875Z" fill-rule="nonzero"/><path fill="#000000" fill-opacity="0.0" clip-path="url(#id_0)" d="M102.14 103.54375C102.14 105.20061 100.79685 106.54375 99.14 106.54375C97.48315 106.54375 96.14 105.20061 96.14 103.54375C96.14 101.886894 97.48315 100.54375 99.14 100.54375C100.79685 100.54375 102.14 101.886894 102.14 103.54375Z" fill-rule="nonzero"/><path fill="#000000" fill-opacity="0.0" clip-path="url(#id_0)" d="M209.32 149.325C209.32 150.98186 207.97685 152.325 206.32 152.325C204.66315 152.325 203.32 150.98186 203.32 149.325C203.32 147.66815 204.66315 146.325 206.32 146.325C207.97685 146.325 209.32 147.66815 209.32 149.325Z" fill-rule="nonzero"/><path fill="#000000" fill-opacity="0.0" clip-path="url(#id_0)" d="M316.5 195.10625C316.5 196.7631 315.15686 198.10625 313.5 198.10625C311.84314 198.10625 310.5 196.7631 310.5 195.10625C310.5 193.4494 311.84314 192.10625 313.5 192.10625C315.15686 192.10625 316.5 193.4494 316.5 195.10625Z" fill-rule="nonzero"/><path fill="#000000" fill-opacity="0.0" clip-path="url(#id_0)" d="M423.68 271.40833C423.68 273.0652 422.33685 274.40833 420.68 274.40833C419.02313 274.40833 417.68 273.0652 417.68 271.40833C417.68 269.75146 419.02313 268.40833 420.68 268.40833C422.33685 268.40833 423.68 269.75146 423.68 271.40833Z" fill-rule="nonzero"/><path fill="#000000" fill-opacity="0.0" clip-path="url(#id_0)" d="M530.86 301.92917C530.86 303.58603 529.51685 304.92917 527.86 304.92917C526.2031 304.92917 524.86 303.58603 524.86 301.92917C524.86 300.2723 526.2031 298.92917 527.86 298.92917C529.51685 298.92917 530.86 300.2723 530.86 301.92917Z" fill-rule="nonzero"/><path fill="#000000" d="M33.05 332.21564Q33.05 330.6844 33.3625 329.7625Q33.675 328.825 34.284374 328.325Q34.909374 327.825 35.846874 327.825Q36.534374 327.825 37.05 328.10626Q37.58125 328.3875 37.925 328.91876Q38.26875 329.4344 38.45625 330.1844Q38.64375 330.9344 38.64375 332.21564Q38.64375 333.73126 38.33125 334.65314Q38.034374 335.575 37.409374 336.09064Q36.8 336.59064 35.846874 336.59064Q34.6125 336.59064 33.89375 335.7Q33.05 334.6375 33.05 332.21564ZM34.128124 332.21564Q34.128124 334.325 34.628124 335.02814Q35.128124 335.73126 35.846874 335.73126Q36.58125 335.73126 37.065624 335.02814Q37.565624 334.325 37.565624 332.21564Q37.565624 330.09064 37.065624 329.40314Q36.58125 328.7 35.83125 328.7Q35.1125 328.7 34.675 329.3094Q34.128124 330.09064 34.128124 332.21564Z" fill-rule="nonzero"/><path fill="#000000" d="M31.596874 274.3927L31.596874 275.40833L25.909374 275.40833Q25.909374 275.03333 26.034374 274.67395Q26.253124 274.09583 26.721874 273.53333Q27.20625 272.97083 28.1125 272.23645Q29.51875 271.0802 30.003124 270.40833Q30.503124 269.73645 30.503124 269.1427Q30.503124 268.5177 30.05 268.09583Q29.596874 267.65833 28.878124 267.65833Q28.1125 267.65833 27.659374 268.11145Q27.20625 268.56458 27.190624 269.37708L26.1125 269.2677Q26.221874 268.04895 26.940624 267.42395Q27.675 266.78333 28.909374 266.78333Q30.14375 266.78333 30.8625 267.47083Q31.58125 268.15833 31.58125 269.17395Q31.58125 269.68958 31.3625 270.18958Q31.159374 270.67395 30.659374 271.23645Q30.175 271.78333 29.05 272.73645Q28.096874 273.53333 27.815624 273.8302Q27.55 274.11145 27.378124 274.3927L31.596874 274.3927ZM33.05 271.17395Q33.05 269.6427 33.3625 268.72083Q33.675 267.78333 34.284374 267.28333Q34.909374 266.78333 35.846874 266.78333Q36.534374 266.78333 37.05 267.06458Q37.58125 267.34583 37.925 267.87708Q38.26875 268.3927 38.45625 269.1427Q38.64375 269.8927 38.64375 271.17395Q38.64375 272.68958 38.33125 273.61145Q38.034374 274.53333 37.409374 275.04895Q36.8 275.54895 35.846874 275.54895Q34.6125 275.54895 33.89375 274.65833Q33.05 273.59583 33.05 271.17395ZM34.128124 271.17395Q34.128124 273.28333 34.628124 273.98645Q35.128124 274.68958 35.846874 274.68958Q36.58125 274.68958 37.065624 273.98645Q37.565624 273.28333 37.565624 271.17395Q37.565624 269.04895 37.065624 268.36145Q36.58125 267.65833 35.83125 267.65833Q35.1125 267.65833 34.675 268.2677Q34.128124 269.04895 34.128124 271.17395Z" fill-rule="nonzero"/><path fill="#000000" d="M29.425 214.36667L29.425 212.30417L25.70625 212.30417L25.70625 211.33542L29.628124 205.77292L30.4875 205.77292L30.4875 211.33542L31.64375 211.33542L31.64375 212.30417L30.4875 212.30417L30.4875 214.36667L29.425 214.36667ZM29.425 211.33542L29.425 207.47604L26.7375 211.33542L29.425 211.33542ZM33.05 210.1323Q33.05 208.60104 33.3625 207.67917Q33.675 206.74167 34.284374 206.24167Q34.909374 205.74167 35.846874 205.74167Q36.534374 205.74167 37.05 206.02292Q37.58125 206.30417 37.925 206.83542Q38.26875 207.35104 38.45625 208.10104Q38.64375 208.85104 38.64375 210.1323Q38.64375 211.64792 38.33125 212.5698Q38.034374 213.49167 37.409374 214.0073Q36.8 214.5073 35.846874 214.5073Q34.6125 214.5073 33.89375 213.61667Q33.05 212.55417 33.05 210.1323ZM34.128124 210.1323Q34.128124 212.24167 34.628124 212.9448Q35.128124 213.64792 35.846874 213.64792Q36.58125 213.64792 37.065624 212.9448Q37.565624 212.24167 37.565624 210.1323Q37.565624 208.0073 37.065624 207.3198Q36.58125 206.61667 35.83125 206.61667Q35.1125 206.61667 34.675 207.22604Q34.128124 208.0073 34.128124 210.1323Z" fill-rule="nonzero"/><path fill="#000000" d="M31.51875 146.84062L30.471874 146.91875Q30.33125 146.29375 30.08125 146.0125Q29.64375 145.55937 29.01875 145.55937Q28.51875 145.55937 28.128124 145.84062Q27.64375 146.21562 27.346874 146.91875Q27.065624 147.60625 27.05 148.8875Q27.425 148.30937 27.971874 148.02812Q28.534374 147.74687 29.14375 147.74687Q30.190624 147.74687 30.925 148.52812Q31.675 149.30937 31.675 150.52812Q31.675 151.34062 31.315624 152.04375Q30.971874 152.73125 30.3625 153.10625Q29.753124 153.46562 28.9875 153.46562Q27.659374 153.46562 26.83125 152.49687Q26.003124 151.52812 26.003124 149.30937Q26.003124 146.80937 26.925 145.68437Q27.721874 144.7 29.08125 144.7Q30.096874 144.7 30.7375 145.27812Q31.39375 145.84062 31.51875 146.84062ZM27.221874 150.54375Q27.221874 151.09062 27.440624 151.59062Q27.675 152.075 28.08125 152.34062Q28.503124 152.60625 28.971874 152.60625Q29.628124 152.60625 30.1125 152.075Q30.596874 151.52812 30.596874 150.60625Q30.596874 149.71562 30.1125 149.2Q29.64375 148.68437 28.925 148.68437Q28.20625 148.68437 27.70625 149.2Q27.221874 149.71562 27.221874 150.54375ZM33.05 149.09062Q33.05 147.55937 33.3625 146.6375Q33.675 145.7 34.284374 145.2Q34.909374 144.7 35.846874 144.7Q36.534374 144.7 37.05 144.98125Q37.58125 145.2625 37.925 145.79375Q38.26875 146.30937 38.45625 147.05937Q38.64375 147.80937 38.64375 149.09062Q38.64375 150.60625 38.33125 151.52812Q38.034374 152.45 37.409374 152.96562Q36.8 153.46562 35.846874 153.46562Q34.6125 153.46562 33.89375 152.575Q33.05 151.5125 33.05 149.09062ZM34.128124 149.09062Q34.128124 151.2 34.628124 151.90312Q35.128124 152.60625 35.846874 152.60625Q36.58125 152.60625 37.065624 151.90312Q37.565624 151.2 37.565624 149.09062Q37.565624 146.96562 37.065624 146.27812Q36.58125 145.575 35.83125 145.575Q35.1125 145.575 34.675 146.18437Q34.128124 146.96562 34.128124 149.09062Z" fill-rule="nonzero"/><path fill="#000000" d="M27.675 87.62708Q27.01875 87.37708 26.690624 86.93958Q26.378124 86.48646 26.378124 85.87708Q26.378124 84.93958 27.05 84.29896Q27.7375 83.65833 28.846874 83.65833Q29.971874 83.65833 30.659374 84.31458Q31.346874 84.97083 31.346874 85.90833Q31.346874 86.50208 31.034374 86.93958Q30.721874 87.37708 30.08125 87.62708Q30.878124 87.87708 31.284374 88.45521Q31.690624 89.03333 31.690624 89.83021Q31.690624 90.92396 30.909374 91.67396Q30.14375 92.42396 28.8625 92.42396Q27.596874 92.42396 26.815624 91.67396Q26.034374 90.92396 26.034374 89.79896Q26.034374 88.95521 26.45625 88.39271Q26.89375 87.83021 27.675 87.62708ZM27.45625 85.83021Q27.45625 86.43958 27.846874 86.83021Q28.253124 87.22083 28.878124 87.22083Q29.4875 87.22083 29.878124 86.84583Q30.26875 86.45521 30.26875 85.89271Q30.26875 85.31458 29.8625 84.92396Q29.45625 84.51771 28.8625 84.51771Q28.253124 84.51771 27.846874 84.90833Q27.45625 85.29896 27.45625 85.83021ZM27.128124 89.79896Q27.128124 90.25208 27.33125 90.67396Q27.55 91.09583 27.971874 91.33021Q28.39375 91.56458 28.878124 91.56458Q29.628124 91.56458 30.1125 91.08021Q30.6125 90.59583 30.6125 89.84583Q30.6125 89.08021 30.1125 88.58021Q29.6125 88.08021 28.846874 88.08021Q28.096874 88.08021 27.6125 88.58021Q27.128124 89.06458 27.128124 89.79896ZM33.05 88.04896Q33.05 86.51771 33.3625 85.59583Q33.675 84.65833 34.284374 84.15833Q34.909374 83.65833 35.846874 83.65833Q36.534374 83.65833 37.05 83.93958Q37.58125 84.22083 37.925 84.75208Q38.26875 85.26771 38.45625 86.01771Q38.64375 86.76771 38.64375 88.04896Q38.64375 89.56458 38.33125 90.48646Q38.034374 91.40833 37.409374 91.92396Q36.8 92.42396 35.846874 92.42396Q34.6125 92.42396 33.89375 91.53333Q33.05 90.47083 33.05 88.04896ZM34.128124 88.04896Q34.128124 90.15833 34.628124 90.86146Q35.128124 91.56458 35.846874 91.56458Q36.58125 91.56458 37.065624 90.86146Q37.565624 90.15833 37.565624 88.04896Q37.565624 85.92396 37.065624 85.23646Q36.58125 84.53333 35.83125 84.53333Q35.1125 84.53333 34.675 85.14271Q34.128124 85.92396 34.128124 88.04896Z" fill-rule="nonzero"/><path fill="#000000" d="M80.515 349.45L80.515 340.85626L81.655624 340.85626L81.655624 348.4344L85.89 348.4344L85.89 349.45L80.515 349.45ZM91.686874 347.45L92.780624 347.575Q92.530624 348.52814 91.8275 349.0594Q91.124374 349.59064 90.04625 349.59064Q88.686874 349.59064 87.874374 348.7469Q87.0775 347.90314 87.0775 346.3875Q87.0775 344.825 87.89 343.96564Q88.7025 343.09064 89.98375 343.09064Q91.23375 343.09064 92.015 343.9344Q92.811874 344.77814 92.811874 346.325Q92.811874 346.41876 92.811874 346.60626L88.17125 346.60626Q88.23375 347.6375 88.749374 348.1844Q89.265 348.71564 90.04625 348.71564Q90.624374 348.71564 91.030624 348.41876Q91.4525 348.10626 91.686874 347.45ZM88.23375 345.7469L91.7025 345.7469Q91.64 344.95 91.311874 344.5594Q90.79625 343.95 89.999374 343.95Q89.265 343.95 88.765 344.4344Q88.280624 344.91876 88.23375 345.7469ZM96.155624 349.45L93.79625 343.23126L94.905624 343.23126L96.249374 346.95Q96.4525 347.5594 96.64 348.2Q96.780624 347.71564 97.030624 347.02814L98.42125 343.23126L99.499374 343.23126L97.14 349.45L96.155624 349.45ZM103.686874 347.45L104.780624 347.575Q104.530624 348.52814 103.8275 349.0594Q103.124374 349.59064 102.04625 349.59064Q100.686874 349.59064 99.874374 348.7469Q99.0775 347.90314 99.0775 346.3875Q99.0775 344.825 99.89 343.96564Q100.7025 343.09064 101.98375 343.09064Q103.23375 343.09064 104.015 343.9344Q104.811874 344.77814 104.811874 346.325Q104.811874 346.41876 104.811874 346.60626L100.17125 346.60626Q100.23375 347.6375 100.749374 348.1844Q101.265 348.71564 102.04625 348.71564Q102.624374 348.71564 103.030624 348.41876Q103.4525 348.10626 103.686874 347.45ZM100.23375 345.7469L103.7025 345.7469Q103.64 344.95 103.311874 344.5594Q102.79625 343.95 101.999374 343.95Q101.265 343.95 100.765 344.4344Q100.280624 344.91876 100.23375 345.7469ZM106.405624 349.45L106.405624 340.85626L107.468124 340.85626L107.468124 349.45L106.405624 349.45ZM116.10875 349.45L115.061874 349.45L115.061874 342.73126Q114.67125 343.09064 114.04625 343.46564Q113.436874 343.825 112.9525 343.9969L112.9525 342.98126Q113.8275 342.5594 114.48375 341.98126Q115.155624 341.3875 115.436874 340.825L116.10875 340.825L116.10875 349.45Z" fill-rule="nonzero"/><path fill="#000000" d="M187.695 349.45L187.695 340.85626L188.83563 340.85626L188.83563 348.4344L193.07 348.4344L193.07 349.45L187.695 349.45ZM198.86688 347.45L199.96063 347.575Q199.71063 348.52814 199.0075 349.0594Q198.30438 349.59064 197.22626 349.59064Q195.86688 349.59064 195.05438 348.7469Q194.2575 347.90314 194.2575 346.3875Q194.2575 344.825 195.07 343.96564Q195.8825 343.09064 197.16376 343.09064Q198.41376 343.09064 199.195 343.9344Q199.99188 344.77814 199.99188 346.325Q199.99188 346.41876 199.99188 346.60626L195.35126 346.60626Q195.41376 347.6375 195.92938 348.1844Q196.445 348.71564 197.22626 348.71564Q197.80438 348.71564 198.21063 348.41876Q198.6325 348.10626 198.86688 347.45ZM195.41376 345.7469L198.8825 345.7469Q198.82 344.95 198.49188 344.5594Q197.97626 343.95 197.17938 343.95Q196.445 343.95 195.945 344.4344Q195.46063 344.91876 195.41376 345.7469ZM203.33563 349.45L200.97626 343.23126L202.08563 343.23126L203.42938 346.95Q203.6325 347.5594 203.82 348.2Q203.96063 347.71564 204.21063 347.02814L205.60126 343.23126L206.67938 343.23126L204.32 349.45L203.33563 349.45ZM210.86688 347.45L211.96063 347.575Q211.71063 348.52814 211.0075 349.0594Q210.30438 349.59064 209.22626 349.59064Q207.86688 349.59064 207.05438 348.7469Q206.2575 347.90314 206.2575 346.3875Q206.2575 344.825 207.07 343.96564Q207.8825 343.09064 209.16376 343.09064Q210.41376 343.09064 211.195 343.9344Q211.99188 344.77814 211.99188 346.325Q211.99188 346.41876 211.99188 346.60626L207.35126 346.60626Q207.41376 347.6375 207.92938 348.1844Q208.445 348.71564 209.22626 348.71564Q209.80438 348.71564 210.21063 348.41876Q210.6325 348.10626 210.86688 347.45ZM207.41376 345.7469L210.8825 345.7469Q210.82 344.95 210.49188 344.5594Q209.97626 343.95 209.17938 343.95Q208.445 343.95 207.945 344.4344Q207.46063 344.91876 207.41376 345.7469ZM213.58563 349.45L213.58563 340.85626L214.64813 340.85626L214.64813 349.45L213.58563 349.45ZM224.86688 348.4344L224.86688 349.45L219.17938 349.45Q219.17938 349.075 219.30438 348.71564Q219.52313 348.1375 219.99188 347.575Q220.47626 347.0125 221.3825 346.27814Q222.78876 345.1219 223.27313 344.45Q223.77313 343.77814 223.77313 343.1844Q223.77313 342.5594 223.32 342.1375Q222.86688 341.7 222.14813 341.7Q221.3825 341.7 220.92938 342.15314Q220.47626 342.60626 220.46063 343.41876L219.3825 343.3094Q219.49188 342.09064 220.21063 341.46564Q220.945 340.825 222.17938 340.825Q223.41376 340.825 224.1325 341.5125Q224.85126 342.2 224.85126 343.21564Q224.85126 343.73126 224.6325 344.23126Q224.42938 344.71564 223.92938 345.27814Q223.445 345.825 222.32 346.77814Q221.36688 347.575 221.08563 347.8719Q220.82 348.15314 220.64813 348.4344L224.86688 348.4344Z" fill-rule="nonzero"/><path fill="#000000" d="M294.875 349.45L294.875 340.85626L296.01562 340.85626L296.01562 348.4344L300.25 348.4344L300.25 349.45L294.875 349.45ZM306.04688 347.45L307.14062 347.575Q306.89062 348.52814 306.1875 349.0594Q305.48438 349.59064 304.40625 349.59064Q303.04688 349.59064 302.23438 348.7469Q301.4375 347.90314 301.4375 346.3875Q301.4375 344.825 302.25 343.96564Q303.0625 343.09064 304.34375 343.09064Q305.59375 343.09064 306.375 343.9344Q307.17188 344.77814 307.17188 346.325Q307.17188 346.41876 307.17188 346.60626L302.53125 346.60626Q302.59375 347.6375 303.10938 348.1844Q303.625 348.71564 304.40625 348.71564Q304.98438 348.71564 305.39062 348.41876Q305.8125 348.10626 306.04688 347.45ZM302.59375 345.7469L306.0625 345.7469Q306.0 344.95 305.67188 344.5594Q305.15625 343.95 304.35938 343.95Q303.625 343.95 303.125 344.4344Q302.64062 344.91876 302.59375 345.7469ZM310.51562 349.45L308.15625 343.23126L309.26562 343.23126L310.60938 346.95Q310.8125 347.5594 311.0 348.2Q311.14062 347.71564 311.39062 347.02814L312.78125 343.23126L313.85938 343.23126L311.5 349.45L310.51562 349.45ZM318.04688 347.45L319.14062 347.575Q318.89062 348.52814 318.1875 349.0594Q317.48438 349.59064 316.40625 349.59064Q315.04688 349.59064 314.23438 348.7469Q313.4375 347.90314 313.4375 346.3875Q313.4375 344.825 314.25 343.96564Q315.0625 343.09064 316.34375 343.09064Q317.59375 343.09064 318.375 343.9344Q319.17188 344.77814 319.17188 346.325Q319.17188 346.41876 319.17188 346.60626L314.53125 346.60626Q314.59375 347.6375 315.10938 348.1844Q315.625 348.71564 316.40625 348.71564Q316.98438 348.71564 317.39062 348.41876Q317.8125 348.10626 318.04688 347.45ZM314.59375 345.7469L318.0625 345.7469Q318.0 344.95 317.67188 344.5594Q317.15625 343.95 316.35938 343.95Q315.625 343.95 315.125 344.4344Q314.64062 344.91876 314.59375 345.7469ZM320.76562 349.45L320.76562 340.85626L321.82812 340.85626L321.82812 349.45L320.76562 349.45ZM326.5 347.1844L327.5625 347.04376Q327.73438 347.9344 328.17188 348.34064Q328.60938 348.73126 329.23438 348.73126Q329.98438 348.73126 330.5 348.21564Q331.01562 347.7 331.01562 346.9344Q331.01562 346.21564 330.53125 345.7469Q330.0625 345.2625 329.32812 345.2625Q329.03125 345.2625 328.57812 345.3875L328.70312 344.45Q328.8125 344.46564 328.875 344.46564Q329.54688 344.46564 330.07812 344.1219Q330.625 343.7625 330.625 343.02814Q330.625 342.45 330.23438 342.075Q329.84375 341.6844 329.21875 341.6844Q328.60938 341.6844 328.1875 342.075Q327.78125 342.46564 327.67188 343.23126L326.60938 343.04376Q326.79688 341.9969 327.48438 341.41876Q328.17188 340.825 329.1875 340.825Q329.89062 340.825 330.48438 341.1375Q331.07812 341.4344 331.39062 341.95Q331.70312 342.46564 331.70312 343.0594Q331.70312 343.60626 331.40625 344.075Q331.10938 344.52814 330.53125 344.79376Q331.28125 344.96564 331.70312 345.52814Q332.125 346.075 332.125 346.91876Q332.125 348.04376 331.29688 348.825Q330.48438 349.60626 329.23438 349.60626Q328.10938 349.60626 327.35938 348.9344Q326.60938 348.2469 326.5 347.1844Z" fill-rule="nonzero"/><path fill="#000000" d="M402.055 349.45L402.055 340.85626L403.19562 340.85626L403.19562 348.4344L407.43 348.4344L407.43 349.45L402.055 349.45ZM413.22687 347.45L414.32062 347.575Q414.07062 348.52814 413.3675 349.0594Q412.66437 349.59064 411.58624 349.59064Q410.22687 349.59064 409.41437 348.7469Q408.6175 347.90314 408.6175 346.3875Q408.6175 344.825 409.43 343.96564Q410.2425 343.09064 411.52374 343.09064Q412.77374 343.09064 413.555 343.9344Q414.35187 344.77814 414.35187 346.325Q414.35187 346.41876 414.35187 346.60626L409.71124 346.60626Q409.77374 347.6375 410.28937 348.1844Q410.805 348.71564 411.58624 348.71564Q412.16437 348.71564 412.57062 348.41876Q412.9925 348.10626 413.22687 347.45ZM409.77374 345.7469L413.2425 345.7469Q413.18 344.95 412.85187 344.5594Q412.33624 343.95 411.53937 343.95Q410.805 343.95 410.305 344.4344Q409.82062 344.91876 409.77374 345.7469ZM417.69562 349.45L415.33624 343.23126L416.44562 343.23126L417.78937 346.95Q417.9925 347.5594 418.18 348.2Q418.32062 347.71564 418.57062 347.02814L419.96124 343.23126L421.03937 343.23126L418.68 349.45L417.69562 349.45ZM425.22687 347.45L426.32062 347.575Q426.07062 348.52814 425.3675 349.0594Q424.66437 349.59064 423.58624 349.59064Q422.22687 349.59064 421.41437 348.7469Q420.6175 347.90314 420.6175 346.3875Q420.6175 344.825 421.43 343.96564Q422.2425 343.09064 423.52374 343.09064Q424.77374 343.09064 425.555 343.9344Q426.35187 344.77814 426.35187 346.325Q426.35187 346.41876 426.35187 346.60626L421.71124 346.60626Q421.77374 347.6375 422.28937 348.1844Q422.805 348.71564 423.58624 348.71564Q424.16437 348.71564 424.57062 348.41876Q424.9925 348.10626 425.22687 347.45ZM421.77374 345.7469L425.2425 345.7469Q425.18 344.95 424.85187 344.5594Q424.33624 343.95 423.53937 343.95Q422.805 343.95 422.305 344.4344Q421.82062 344.91876 421.77374 345.7469ZM427.94562 349.45L427.94562 340.85626L429.00812 340.85626L429.00812 349.45L427.94562 349.45ZM437.055 349.45L437.055 347.3875L433.33624 347.3875L433.33624 346.41876L437.25812 340.85626L438.1175 340.85626L438.1175 346.41876L439.27374 346.41876L439.27374 347.3875L438.1175 347.3875L438.1175 349.45L437.055 349.45ZM437.055 346.41876L437.055 342.5594L434.3675 346.41876L437.055 346.41876Z" fill-rule="nonzero"/><path fill="#000000" d="M509.235 349.45L509.235 340.85626L510.3756 340.85626L510.3756 348.4344L514.61 348.4344L514.61 349.45L509.235 349.45ZM520.40686 347.45L521.5006 347.575Q521.2506 348.52814 520.5475 349.0594Q519.84436 349.59064 518.76624 349.59064Q517.40686 349.59064 516.59436 348.7469Q515.7975 347.90314 515.7975 346.3875Q515.7975 344.825 516.61 343.96564Q517.4225 343.09064 518.70374 343.09064Q519.95374 343.09064 520.735 343.9344Q521.53186 344.77814 521.53186 346.325Q521.53186 346.41876 521.53186 346.60626L516.89124 346.60626Q516.95374 347.6375 517.46936 348.1844Q517.985 348.71564 518.76624 348.71564Q519.34436 348.71564 519.7506 348.41876Q520.1725 348.10626 520.40686 347.45ZM516.95374 345.7469L520.4225 345.7469Q520.36 344.95 520.03186 344.5594Q519.51624 343.95 518.71936 343.95Q517.985 343.95 517.485 344.4344Q517.0006 344.91876 516.95374 345.7469ZM524.8756 349.45L522.51624 343.23126L523.6256 343.23126L524.96936 346.95Q525.1725 347.5594 525.36 348.2Q525.5006 347.71564 525.7506 347.02814L527.14124 343.23126L528.21936 343.23126L525.86 349.45L524.8756 349.45ZM532.40686 347.45L533.5006 347.575Q533.2506 348.52814 532.5475 349.0594Q531.84436 349.59064 530.76624 349.59064Q529.40686 349.59064 528.59436 348.7469Q527.7975 347.90314 527.7975 346.3875Q527.7975 344.825 528.61 343.96564Q529.4225 343.09064 530.70374 343.09064Q531.95374 343.09064 532.735 343.9344Q533.53186 344.77814 533.53186 346.325Q533.53186 346.41876 533.53186 346.60626L528.89124 346.60626Q528.95374 347.6375 529.46936 348.1844Q529.985 348.71564 530.76624 348.71564Q531.34436 348.71564 531.7506 348.41876Q532.1725 348.10626 532.40686 347.45ZM528.95374 345.7469L532.4225 345.7469Q532.36 344.95 532.03186 344.5594Q531.51624 343.95 530.71936 343.95Q529.985 343.95 529.485 344.4344Q529.0006 344.91876 528.95374 345.7469ZM535.1256 349.45L535.1256 340.85626L536.1881 340.85626L536.1881 349.45L535.1256 349.45ZM540.86 347.2L541.96936 347.10626Q542.09436 347.91876 542.53186 348.325Q542.985 348.73126 543.6256 348.73126Q544.3756 348.73126 544.90686 348.15314Q545.4381 347.575 545.4381 346.6375Q545.4381 345.73126 544.9225 345.21564Q544.4225 344.6844 543.59436 344.6844Q543.09436 344.6844 542.6725 344.91876Q542.26624 345.15314 542.03186 345.5125L541.0475 345.3875L541.8756 340.98126L546.15686 340.98126L546.15686 341.98126L542.71936 341.98126L542.26624 344.29376Q543.03186 343.7469 543.8756 343.7469Q545.0006 343.7469 545.76624 344.52814Q546.5475 345.3094 546.5475 346.54376Q546.5475 347.7 545.8756 348.5594Q545.0475 349.59064 543.6256 349.59064Q542.45374 349.59064 541.70374 348.9344Q540.96936 348.27814 540.86 347.2Z" fill-rule="nonzero"/><path stroke="#5891ad" stroke-width="4.0" stroke-linecap="butt" d="M185.0 61.916668L197.0 61.916668" fill-rule="nonzero"/><path fill="#1a1a1a" d="M212.0625 62.90104L213.1875 63.197914Q212.82812 64.58854 211.90625 65.322914Q210.98438 66.05729 209.64062 66.05729Q208.25 66.05729 207.375 65.49479Q206.5 64.93229 206.04688 63.86979Q205.59375 62.791664 205.59375 61.55729Q205.59375 60.21354 206.10938 59.21354Q206.625 58.21354 207.5625 57.697914Q208.51562 57.18229 209.65625 57.18229Q210.9375 57.18229 211.8125 57.83854Q212.70312 58.49479 213.04688 59.68229L211.92188 59.947914Q211.625 59.010414 211.04688 58.58854Q210.48438 58.15104 209.625 58.15104Q208.64062 58.15104 207.96875 58.635414Q207.3125 59.104164 207.03125 59.90104Q206.76562 60.697914 206.76562 61.55729Q206.76562 62.65104 207.07812 63.46354Q207.40625 64.27604 208.07812 64.68229Q208.75 65.08854 209.54688 65.08854Q210.5 65.08854 211.15625 64.541664Q211.82812 63.99479 212.0625 62.90104ZM214.76562 65.916664L214.76562 57.322914L215.82812 57.322914L215.82812 65.916664L214.76562 65.916664ZM217.40625 62.80729Q217.40625 61.072914 218.35938 60.24479Q219.15625 59.55729 220.3125 59.55729Q221.59375 59.55729 222.40625 60.40104Q223.23438 61.229164 223.23438 62.71354Q223.23438 63.916664 222.875 64.604164Q222.51562 65.291664 221.8125 65.68229Q221.125 66.05729 220.3125 66.05729Q219.01562 66.05729 218.20312 65.229164Q217.40625 64.385414 217.40625 62.80729ZM218.48438 62.80729Q218.48438 63.99479 219.0 64.58854Q219.53125 65.18229 220.3125 65.18229Q221.10938 65.18229 221.625 64.58854Q222.14062 63.99479 222.14062 62.77604Q222.14062 61.61979 221.60938 61.02604Q221.09375 60.43229 220.3125 60.43229Q219.53125 60.43229 219.0 61.02604Q218.48438 61.604164 218.48438 62.80729ZM228.875 65.916664L228.875 64.99479Q228.14062 66.05729 226.89062 66.05729Q226.34375 66.05729 225.85938 65.854164Q225.39062 65.635414 225.15625 65.322914Q224.92188 64.99479 224.82812 64.52604Q224.76562 64.229164 224.76562 63.541664L224.76562 59.697914L225.82812 59.697914L225.82812 63.15104Q225.82812 63.96354 225.89062 64.260414Q225.98438 64.666664 226.29688 64.916664Q226.625 65.15104 227.10938 65.15104Q227.57812 65.15104 227.98438 64.916664Q228.40625 64.666664 228.57812 64.24479Q228.76562 63.822914 228.76562 63.02604L228.76562 59.697914L229.8125 59.697914L229.8125 65.916664L228.875 65.916664ZM235.82812 65.916664L235.82812 65.135414Q235.23438 66.05729 234.09375 66.05729Q233.34375 66.05729 232.71875 65.65104Q232.09375 65.229164 231.75 64.49479Q231.40625 63.760414 231.40625 62.80729Q231.40625 61.885414 231.71875 61.11979Q232.03125 60.354164 232.65625 59.96354Q233.28125 59.55729 234.04688 59.55729Q234.60938 59.55729 235.04688 59.791664Q235.48438 60.02604 235.76562 60.40104L235.76562 57.322914L236.8125 57.322914L236.8125 65.916664L235.82812 65.916664ZM232.5 62.80729Q232.5 64.010414 233.0 64.604164Q233.5 65.18229 234.1875 65.18229Q234.875 65.18229 235.35938 64.61979Q235.84375 64.05729 235.84375 62.90104Q235.84375 61.61979 235.34375 61.02604Q234.85938 60.43229 234.14062 60.43229Q233.4375 60.43229 232.96875 61.010414Q232.5 61.572914 232.5 62.80729ZM241.92188 65.916664L241.92188 57.322914L243.07812 57.322914L247.59375 64.072914L247.59375 57.322914L248.6875 57.322914L248.6875 65.916664L247.51562 65.916664L243.0 59.166664L243.0 65.916664L241.92188 65.916664ZM254.85938 65.15104Q254.26562 65.65104 253.71875 65.854164Q253.1875 66.05729 252.5625 66.05729Q251.53125 66.05729 250.98438 65.55729Q250.4375 65.05729 250.4375 64.27604Q250.4375 63.822914 250.64062 63.447914Q250.84375 63.05729 251.1875 62.83854Q251.53125 62.604164 251.95312 62.49479Q252.25 62.40104 252.89062 62.322914Q254.15625 62.18229 254.76562 61.96354Q254.76562 61.74479 254.76562 61.697914Q254.76562 61.041664 254.46875 60.77604Q254.0625 60.43229 253.26562 60.43229Q252.53125 60.43229 252.17188 60.697914Q251.8125 60.947914 251.64062 61.604164L250.60938 61.46354Q250.75 60.80729 251.07812 60.40104Q251.40625 59.99479 252.01562 59.77604Q252.625 59.55729 253.42188 59.55729Q254.21875 59.55729 254.71875 59.74479Q255.21875 59.93229 255.45312 60.21354Q255.6875 60.49479 255.78125 60.93229Q255.82812 61.197914 255.82812 61.90104L255.82812 63.30729Q255.82812 64.77604 255.89062 65.166664Q255.96875 65.55729 256.17188 65.916664L255.0625 65.916664Q254.90625 65.58854 254.85938 65.15104ZM254.76562 62.791664Q254.1875 63.02604 253.04688 63.197914Q252.39062 63.291664 252.125 63.416664Q251.85938 63.52604 251.70312 63.74479Q251.5625 63.96354 251.5625 64.24479Q251.5625 64.666664 251.875 64.947914Q252.20312 65.229164 252.8125 65.229164Q253.42188 65.229164 253.89062 64.96354Q254.375 64.697914 254.59375 64.229164Q254.76562 63.86979 254.76562 63.18229L254.76562 62.791664ZM260.09375 64.979164L260.25 65.90104Q259.79688 65.99479 259.45312 65.99479Q258.875 65.99479 258.5625 65.822914Q258.25 65.635414 258.10938 65.33854Q257.98438 65.041664 257.98438 64.08854L257.98438 60.510414L257.21875 60.510414L257.21875 59.697914L257.98438 59.697914L257.98438 58.15104L259.03125 57.52604L259.03125 59.697914L260.09375 59.697914L260.09375 60.510414L259.03125 60.510414L259.03125 64.15104Q259.03125 64.604164 259.07812 64.729164Q259.14062 64.854164 259.26562 64.93229Q259.39062 65.010414 259.625 65.010414Q259.8125 65.010414 260.09375 64.979164ZM260.79688 58.541664L260.79688 57.322914L261.85938 57.322914L261.85938 58.541664L260.79688 58.541664ZM260.79688 65.916664L260.79688 59.697914L261.85938 59.697914L261.85938 65.916664L260.79688 65.916664ZM265.51562 65.916664L263.15625 59.697914L264.26562 59.697914L265.60938 63.416664Q265.8125 64.02604 266.0 64.666664Q266.14062 64.18229 266.39062 63.49479L267.78125 59.697914L268.85938 59.697914L266.5 65.916664L265.51562 65.916664ZM273.04688 63.916664L274.14062 64.041664Q273.89062 64.99479 273.1875 65.52604Q272.48438 66.05729 271.40625 66.05729Q270.04688 66.05729 269.23438 65.21354Q268.4375 64.36979 268.4375 62.854164Q268.4375 61.291664 269.25 60.43229Q270.0625 59.55729 271.34375 59.55729Q272.59375 59.55729 273.375 60.40104Q274.17188 61.24479 274.17188 62.791664Q274.17188 62.885414 274.17188 63.072914L269.53125 63.072914Q269.59375 64.104164 270.10938 64.65104Q270.625 65.18229 271.40625 65.18229Q271.98438 65.18229 272.39062 64.885414Q272.8125 64.572914 273.04688 63.916664ZM269.59375 62.21354L273.0625 62.21354Q273.0 61.416664 272.67188 61.02604Q272.15625 60.416664 271.35938 60.416664Q270.625 60.416664 270.125 60.90104Q269.64062 61.385414 269.59375 62.21354ZM285.0625 62.90104L286.1875 63.197914Q285.82812 64.58854 284.90625 65.322914Q283.98438 66.05729 282.64062 66.05729Q281.25 66.05729 280.375 65.49479Q279.5 64.93229 279.04688 63.86979Q278.59375 62.791664 278.59375 61.55729Q278.59375 60.21354 279.10938 59.21354Q279.625 58.21354 280.5625 57.697914Q281.51562 57.18229 282.65625 57.18229Q283.9375 57.18229 284.8125 57.83854Q285.70312 58.49479 286.04688 59.68229L284.92188 59.947914Q284.625 59.010414 284.04688 58.58854Q283.48438 58.15104 282.625 58.15104Q281.64062 58.15104 280.96875 58.635414Q280.3125 59.104164 280.03125 59.90104Q279.76562 60.697914 279.76562 61.55729Q279.76562 62.65104 280.07812 63.46354Q280.40625 64.27604 281.07812 64.68229Q281.75 65.08854 282.54688 65.08854Q283.5 65.08854 284.15625 64.541664Q284.82812 63.99479 285.0625 62.90104ZM287.40625 62.80729Q287.40625 61.072914 288.35938 60.24479Q289.15625 59.55729 290.3125 59.55729Q291.59375 59.55729 292.40625 60.40104Q293.23438 61.229164 293.23438 62.71354Q293.23438 63.916664 292.875 64.604164Q292.51562 65.291664 291.8125 65.68229Q291.125 66.05729 290.3125 66.05729Q289.01562 66.05729 288.20312 65.229164Q287.40625 64.385414 287.40625 62.80729ZM288.48438 62.80729Q288.48438 63.99479 289.0 64.58854Q289.53125 65.18229 290.3125 65.18229Q291.10938 65.18229 291.625 64.58854Q292.14062 63.99479 292.14062 62.77604Q292.14062 61.61979 291.60938 61.02604Q291.09375 60.43229 290.3125 60.43229Q289.53125 60.43229 289.0 61.02604Q288.48438 61.604164 288.48438 62.80729ZM294.375 64.05729L295.40625 63.90104Q295.5 64.52604 295.89062 64.854164Q296.29688 65.18229 297.03125 65.18229Q297.75 65.18229 298.09375 64.90104Q298.45312 64.604164 298.45312 64.197914Q298.45312 63.83854 298.14062 63.635414Q297.92188 63.49479 297.0625 63.27604Q295.90625 62.979164 295.45312 62.77604Q295.01562 62.55729 294.78125 62.18229Q294.54688 61.80729 294.54688 61.33854Q294.54688 60.93229 294.73438 60.572914Q294.92188 60.21354 295.25 59.979164Q295.5 59.80729 295.92188 59.68229Q296.34375 59.55729 296.84375 59.55729Q297.5625 59.55729 298.10938 59.77604Q298.67188 59.979164 298.9375 60.33854Q299.20312 60.697914 299.29688 61.291664L298.26562 61.43229Q298.20312 60.96354 297.85938 60.697914Q297.53125 60.416664 296.90625 60.416664Q296.1875 60.416664 295.875 60.666664Q295.5625 60.90104 295.5625 61.229164Q295.5625 61.43229 295.6875 61.58854Q295.82812 61.760414 296.09375 61.86979Q296.25 61.93229 297.03125 62.135414Q298.15625 62.447914 298.59375 62.635414Q299.03125 62.822914 299.28125 63.18229Q299.53125 63.541664 299.53125 64.08854Q299.53125 64.61979 299.21875 65.08854Q298.92188 65.541664 298.34375 65.80729Q297.76562 66.05729 297.03125 66.05729Q295.8125 66.05729 295.17188 65.55729Q294.54688 65.041664 294.375 64.05729ZM304.09375 64.979164L304.25 65.90104Q303.79688 65.99479 303.45312 65.99479Q302.875 65.99479 302.5625 65.822914Q302.25 65.635414 302.10938 65.33854Q301.98438 65.041664 301.98438 64.08854L301.98438 60.510414L301.21875 60.510414L301.21875 59.697914L301.98438 59.697914L301.98438 58.15104L303.03125 57.52604L303.03125 59.697914L304.09375 59.697914L304.09375 60.510414L303.03125 60.510414L303.03125 64.15104Q303.03125 64.604164 303.07812 64.729164Q303.14062 64.854164 303.26562 64.93229Q303.39062 65.010414 303.625 65.010414Q303.8125 65.010414 304.09375 64.979164Z" fill-rule="nonzero"/><path stroke="#004561" stroke-width="4.0" stroke-linecap="butt" d="M320.0 61.916668L332.0 61.916668" fill-rule="nonzero"/><path fill="#1a1a1a" d="M340.875 65.916664L340.875 57.322914L342.01562 57.322914L342.01562 64.90104L346.25 64.90104L346.25 65.916664L340.875 65.916664ZM352.04688 63.916664L353.14062 64.041664Q352.89062 64.99479 352.1875 65.52604Q351.48438 66.05729 350.40625 66.05729Q349.04688 66.05729 348.23438 65.21354Q347.4375 64.36979 347.4375 62.854164Q347.4375 61.291664 348.25 60.43229Q349.0625 59.55729 350.34375 59.55729Q351.59375 59.55729 352.375 60.40104Q353.17188 61.24479 353.17188 62.791664Q353.17188 62.885414 353.17188 63.072914L348.53125 63.072914Q348.59375 64.104164 349.10938 64.65104Q349.625 65.18229 350.40625 65.18229Q350.98438 65.18229 351.39062 64.885414Q351.8125 64.572914 352.04688 63.916664ZM348.59375 62.21354L352.0625 62.21354Q352.0 61.416664 351.67188 61.02604Q351.15625 60.416664 350.35938 60.416664Q349.625 60.416664 349.125 60.90104Q348.64062 61.385414 348.59375 62.21354ZM354.59375 66.43229L355.625 66.58854Q355.6875 67.05729 355.98438 67.27604Q356.375 67.572914 357.04688 67.572914Q357.78125 67.572914 358.17188 67.27604Q358.57812 66.979164 358.71875 66.46354Q358.8125 66.135414 358.79688 65.104164Q358.10938 65.916664 357.07812 65.916664Q355.79688 65.916664 355.09375 64.99479Q354.39062 64.05729 354.39062 62.77604Q354.39062 61.885414 354.70312 61.135414Q355.03125 60.36979 355.64062 59.96354Q356.25 59.55729 357.07812 59.55729Q358.1875 59.55729 358.90625 60.447914L358.90625 59.697914L359.875 59.697914L359.875 65.072914Q359.875 66.52604 359.57812 67.135414Q359.28125 67.74479 358.64062 68.08854Q358.0 68.447914 357.0625 68.447914Q355.95312 68.447914 355.26562 67.947914Q354.57812 67.447914 354.59375 66.43229ZM355.46875 62.697914Q355.46875 63.916664 355.95312 64.479164Q356.4375 65.041664 357.17188 65.041664Q357.90625 65.041664 358.39062 64.479164Q358.89062 63.916664 358.89062 62.729164Q358.89062 61.58854 358.375 61.010414Q357.875 60.43229 357.15625 60.43229Q356.45312 60.43229 355.95312 61.010414Q355.46875 61.572914 355.46875 62.697914ZM365.85938 65.15104Q365.26562 65.65104 364.71875 65.854164Q364.1875 66.05729 363.5625 66.05729Q362.53125 66.05729 361.98438 65.55729Q361.4375 65.05729 361.4375 64.27604Q361.4375 63.822914 361.64062 63.447914Q361.84375 63.05729 362.1875 62.83854Q362.53125 62.604164 362.95312 62.49479Q363.25 62.40104 363.89062 62.322914Q365.15625 62.18229 365.76562 61.96354Q365.76562 61.74479 365.76562 61.697914Q365.76562 61.041664 365.46875 60.77604Q365.0625 60.43229 364.26562 60.43229Q363.53125 60.43229 363.17188 60.697914Q362.8125 60.947914 362.64062 61.604164L361.60938 61.46354Q361.75 60.80729 362.07812 60.40104Q362.40625 59.99479 363.01562 59.77604Q363.625 59.55729 364.42188 59.55729Q365.21875 59.55729 365.71875 59.74479Q366.21875 59.93229 366.45312 60.21354Q366.6875 60.49479 366.78125 60.93229Q366.82812 61.197914 366.82812 61.90104L366.82812 63.30729Q366.82812 64.77604 366.89062 65.166664Q366.96875 65.55729 367.17188 65.916664L366.0625 65.916664Q365.90625 65.58854 365.85938 65.15104ZM365.76562 62.791664Q365.1875 63.02604 364.04688 63.197914Q363.39062 63.291664 363.125 63.416664Q362.85938 63.52604 362.70312 63.74479Q362.5625 63.96354 362.5625 64.24479Q362.5625 64.666664 362.875 64.947914Q363.20312 65.229164 363.8125 65.229164Q364.42188 65.229164 364.89062 64.96354Q365.375 64.697914 365.59375 64.229164Q365.76562 63.86979 365.76562 63.18229L365.76562 62.791664ZM372.85938 63.635414L373.89062 63.77604Q373.71875 64.83854 373.01562 65.447914Q372.3125 66.05729 371.29688 66.05729Q370.01562 66.05729 369.23438 65.229164Q368.46875 64.385414 368.46875 62.822914Q368.46875 61.822914 368.79688 61.072914Q369.14062 60.30729 369.8125 59.93229Q370.5 59.55729 371.3125 59.55729Q372.3125 59.55729 372.95312 60.072914Q373.60938 60.572914 373.79688 61.52604L372.76562 61.68229Q372.625 61.05729 372.25 60.74479Q371.875 60.416664 371.34375 60.416664Q370.54688 60.416664 370.04688 60.99479Q369.54688 61.55729 369.54688 62.791664Q369.54688 64.05729 370.03125 64.61979Q370.51562 65.18229 371.28125 65.18229Q371.90625 65.18229 372.3125 64.80729Q372.73438 64.43229 372.85938 63.635414ZM374.75 68.30729L374.625 67.322914Q374.96875 67.416664 375.23438 67.416664Q375.57812 67.416664 375.78125 67.291664Q376.0 67.18229 376.14062 66.979164Q376.23438 66.80729 376.46875 66.18229Q376.48438 66.104164 376.5625 65.93229L374.1875 59.697914L375.32812 59.697914L376.625 63.291664Q376.875 63.979164 377.07812 64.74479Q377.26562 64.010414 377.51562 63.322914L378.84375 59.697914L379.89062 59.697914L377.53125 66.02604Q377.14062 67.041664 376.9375 67.43229Q376.65625 67.96354 376.28125 68.197914Q375.92188 68.447914 375.42188 68.447914Q375.125 68.447914 374.75 68.30729ZM389.0625 62.90104L390.1875 63.197914Q389.82812 64.58854 388.90625 65.322914Q387.98438 66.05729 386.64062 66.05729Q385.25 66.05729 384.375 65.49479Q383.5 64.93229 383.04688 63.86979Q382.59375 62.791664 382.59375 61.55729Q382.59375 60.21354 383.10938 59.21354Q383.625 58.21354 384.5625 57.697914Q385.51562 57.18229 386.65625 57.18229Q387.9375 57.18229 388.8125 57.83854Q389.70312 58.49479 390.04688 59.68229L388.92188 59.947914Q388.625 59.010414 388.04688 58.58854Q387.48438 58.15104 386.625 58.15104Q385.64062 58.15104 384.96875 58.635414Q384.3125 59.104164 384.03125 59.90104Q383.76562 60.697914 383.76562 61.55729Q383.76562 62.65104 384.07812 63.46354Q384.40625 64.27604 385.07812 64.68229Q385.75 65.08854 386.54688 65.08854Q387.5 65.08854 388.15625 64.541664Q388.82812 63.99479 389.0625 62.90104ZM391.40625 62.80729Q391.40625 61.072914 392.35938 60.24479Q393.15625 59.55729 394.3125 59.55729Q395.59375 59.55729 396.40625 60.40104Q397.23438 61.229164 397.23438 62.71354Q397.23438 63.916664 396.875 64.604164Q396.51562 65.291664 395.8125 65.68229Q395.125 66.05729 394.3125 66.05729Q393.01562 66.05729 392.20312 65.229164Q391.40625 64.385414 391.40625 62.80729ZM392.48438 62.80729Q392.48438 63.99479 393.0 64.58854Q393.53125 65.18229 394.3125 65.18229Q395.10938 65.18229 395.625 64.58854Q396.14062 63.99479 396.14062 62.77604Q396.14062 61.61979 395.60938 61.02604Q395.09375 60.43229 394.3125 60.43229Q393.53125 60.43229 393.0 61.02604Q392.48438 61.604164 392.48438 62.80729ZM398.375 64.05729L399.40625 63.90104Q399.5 64.52604 399.89062 64.854164Q400.29688 65.18229 401.03125 65.18229Q401.75 65.18229 402.09375 64.90104Q402.45312 64.604164 402.45312 64.197914Q402.45312 63.83854 402.14062 63.635414Q401.92188 63.49479 401.0625 63.27604Q399.90625 62.979164 399.45312 62.77604Q399.01562 62.55729 398.78125 62.18229Q398.54688 61.80729 398.54688 61.33854Q398.54688 60.93229 398.73438 60.572914Q398.92188 60.21354 399.25 59.979164Q399.5 59.80729 399.92188 59.68229Q400.34375 59.55729 400.84375 59.55729Q401.5625 59.55729 402.10938 59.77604Q402.67188 59.979164 402.9375 60.33854Q403.20312 60.697914 403.29688 61.291664L402.26562 61.43229Q402.20312 60.96354 401.85938 60.697914Q401.53125 60.416664 400.90625 60.416664Q400.1875 60.416664 399.875 60.666664Q399.5625 60.90104 399.5625 61.229164Q399.5625 61.43229 399.6875 61.58854Q399.82812 61.760414 400.09375 61.86979Q400.25 61.93229 401.03125 62.135414Q402.15625 62.447914 402.59375 62.635414Q403.03125 62.822914 403.28125 63.18229Q403.53125 63.541664 403.53125 64.08854Q403.53125 64.61979 403.21875 65.08854Q402.92188 65.541664 402.34375 65.80729Q401.76562 66.05729 401.03125 66.05729Q399.8125 66.05729 399.17188 65.55729Q398.54688 65.041664 398.375 64.05729ZM408.09375 64.979164L408.25 65.90104Q407.79688 65.99479 407.45312 65.99479Q406.875 65.99479 406.5625 65.822914Q406.25 65.635414 406.10938 65.33854Q405.98438 65.041664 405.98438 64.08854L405.98438 60.510414L405.21875 60.510414L405.21875 59.697914L405.98438 59.697914L405.98438 58.15104L407.03125 57.52604L407.03125 59.697914L408.09375 59.697914L408.09375 60.510414L407.03125 60.510414L407.03125 64.15104Q407.03125 64.604164 407.07812 64.729164Q407.14062 64.854164 407.26562 64.93229Q407.39062 65.010414 407.625 65.010414Q407.8125 65.010414 408.09375 64.979164ZM408.375 64.05729L409.40625 63.90104Q409.5 64.52604 409.89062 64.854164Q410.29688 65.18229 411.03125 65.18229Q411.75 65.18229 412.09375 64.90104Q412.45312 64.604164 412.45312 64.197914Q412.45312 63.83854 412.14062 63.635414Q411.92188 63.49479 411.0625 63.27604Q409.90625 62.979164 409.45312 62.77604Q409.01562 62.55729 408.78125 62.18229Q408.54688 61.80729 408.54688 61.33854Q408.54688 60.93229 408.73438 60.572914Q408.92188 60.21354 409.25 59.979164Q409.5 59.80729 409.92188 59.68229Q410.34375 59.55729 410.84375 59.55729Q411.5625 59.55729 412.10938 59.77604Q412.67188 59.979164 412.9375 60.33854Q413.20312 60.697914 413.29688 61.291664L412.26562 61.43229Q412.20312 60.96354 411.85938 60.697914Q411.53125 60.416664 410.90625 60.416664Q410.1875 60.416664 409.875 60.666664Q409.5625 60.90104 409.5625 61.229164Q409.5625 61.43229 409.6875 61.58854Q409.82812 61.760414 410.09375 61.86979Q410.25 61.93229 411.03125 62.135414Q412.15625 62.447914 412.59375 62.635414Q413.03125 62.822914 413.28125 63.18229Q413.53125 63.541664 413.53125 64.08854Q413.53125 64.61979 413.21875 65.08854Q412.92188 65.541664 412.34375 65.80729Q411.76562 66.05729 411.03125 66.05729Q409.8125 66.05729 409.17188 65.55729Q408.54688 65.041664 408.375 64.05729Z" fill-rule="nonzero"/><path fill="#757575" d="M30.315624 32.534374L32.20625 33.003124Q31.6125 35.346874 30.065624 36.58125Q28.51875 37.8 26.26875 37.8Q23.95625 37.8 22.503124 36.8625Q21.065624 35.909374 20.3 34.128124Q19.55 32.33125 19.55 30.284374Q19.55 28.05 20.39375 26.39375Q21.253124 24.721874 22.83125 23.8625Q24.409374 22.9875 26.3 22.9875Q28.45625 22.9875 29.909374 24.08125Q31.378124 25.175 31.95625 27.159374L30.096874 27.596874Q29.596874 26.034374 28.64375 25.33125Q27.70625 24.6125 26.26875 24.6125Q24.6125 24.6125 23.503124 25.409374Q22.39375 26.190624 21.940624 27.534374Q21.503124 28.8625 21.503124 30.26875Q21.503124 32.096874 22.034374 33.471874Q22.565624 34.83125 23.690624 35.503124Q24.815624 36.175 26.1125 36.175Q27.70625 36.175 28.815624 35.253124Q29.925 34.33125 30.315624 32.534374ZM33.221874 32.3625Q33.221874 29.4875 34.815624 28.096874Q36.159374 26.940624 38.08125 26.940624Q40.221874 26.940624 41.565624 28.346874Q42.925 29.753124 42.925 32.221874Q42.925 34.221874 42.33125 35.378124Q41.7375 36.51875 40.58125 37.159374Q39.440624 37.784374 38.08125 37.784374Q35.89375 37.784374 34.55 36.39375Q33.221874 34.9875 33.221874 32.3625ZM35.01875 32.3625Q35.01875 34.3625 35.878124 35.346874Q36.753124 36.33125 38.08125 36.33125Q39.39375 36.33125 40.253124 35.346874Q41.128124 34.346874 41.128124 32.3Q41.128124 30.378124 40.253124 29.39375Q39.378124 28.39375 38.08125 28.39375Q36.753124 28.39375 35.878124 29.39375Q35.01875 30.378124 35.01875 32.3625ZM44.159374 34.45625L45.909374 34.175Q46.05 35.221874 46.721874 35.784374Q47.39375 36.33125 48.596874 36.33125Q49.8 36.33125 50.378124 35.846874Q50.971874 35.346874 50.971874 34.690624Q50.971874 34.096874 50.45625 33.753124Q50.096874 33.51875 48.659374 33.159374Q46.721874 32.659374 45.971874 32.315624Q45.2375 31.95625 44.846874 31.33125Q44.45625 30.690624 44.45625 29.925Q44.45625 29.2375 44.76875 28.64375Q45.096874 28.05 45.64375 27.659374Q46.05 27.3625 46.753124 27.159374Q47.471874 26.940624 48.284374 26.940624Q49.503124 26.940624 50.425 27.3Q51.346874 27.64375 51.784374 28.253124Q52.221874 28.846874 52.39375 29.846874L50.675 30.08125Q50.55 29.284374 49.9875 28.846874Q49.425 28.39375 48.409374 28.39375Q47.190624 28.39375 46.675 28.8Q46.159374 29.190624 46.159374 29.721874Q46.159374 30.065624 46.378124 30.346874Q46.58125 30.628124 47.05 30.815624Q47.315624 30.909374 48.596874 31.253124Q50.471874 31.753124 51.20625 32.08125Q51.940624 32.39375 52.3625 33.003124Q52.784374 33.596874 52.784374 34.503124Q52.784374 35.378124 52.26875 36.159374Q51.753124 36.940624 50.784374 37.3625Q49.815624 37.784374 48.596874 37.784374Q46.58125 37.784374 45.51875 36.940624Q44.45625 36.096874 44.159374 34.45625ZM58.70625 35.971874L58.95625 37.534374Q58.221874 37.690624 57.628124 37.690624Q56.675 37.690624 56.14375 37.39375Q55.628124 37.08125 55.409374 36.596874Q55.190624 36.096874 55.190624 34.51875L55.190624 28.55L53.909374 28.55L53.909374 27.175L55.190624 27.175L55.190624 24.6125L56.940624 23.55L56.940624 27.175L58.70625 27.175L58.70625 28.55L56.940624 28.55L56.940624 34.6125Q56.940624 35.3625 57.034374 35.58125Q57.128124 35.784374 57.33125 35.925Q57.55 36.05 57.940624 36.05Q58.221874 36.05 58.70625 35.971874ZM61.3625 29.175L61.3625 27.175L63.3625 27.175L63.3625 29.175L61.3625 29.175ZM61.3625 37.55L61.3625 35.55L63.3625 35.55L63.3625 37.55L61.3625 37.55ZM83.31563 32.534374L85.20625 33.003124Q84.6125 35.346874 83.06563 36.58125Q81.51875 37.8 79.26875 37.8Q76.95625 37.8 75.50313 36.8625Q74.06563 35.909374 73.3 34.128124Q72.55 32.33125 72.55 30.284374Q72.55 28.05 73.39375 26.39375Q74.25313 24.721874 75.83125 23.8625Q77.40938 22.9875 79.3 22.9875Q81.45625 22.9875 82.90938 24.08125Q84.37813 25.175 84.95625 27.159374L83.09688 27.596874Q82.59688 26.034374 81.64375 25.33125Q80.70625 24.6125 79.26875 24.6125Q77.6125 24.6125 76.50313 25.409374Q75.39375 26.190624 74.94063 27.534374Q74.50313 28.8625 74.50313 30.26875Q74.50313 32.096874 75.03438 33.471874Q75.56563 34.83125 76.69063 35.503124Q77.81563 36.175 79.1125 36.175Q80.70625 36.175 81.81563 35.253124Q82.925 34.33125 83.31563 32.534374ZM86.83125 37.55L86.83125 23.2375L88.58125 23.2375L88.58125 37.55L86.83125 37.55ZM90.22188 32.3625Q90.22188 29.4875 91.81563 28.096874Q93.15938 26.940624 95.08125 26.940624Q97.22188 26.940624 98.56563 28.346874Q99.925 29.753124 99.925 32.221874Q99.925 34.221874 99.33125 35.378124Q98.7375 36.51875 97.58125 37.159374Q96.44063 37.784374 95.08125 37.784374Q92.89375 37.784374 91.55 36.39375Q90.22188 34.9875 90.22188 32.3625ZM92.01875 32.3625Q92.01875 34.3625 92.87813 35.346874Q93.75313 36.33125 95.08125 36.33125Q96.39375 36.33125 97.25313 35.346874Q98.12813 34.346874 98.12813 32.3Q98.12813 30.378124 97.25313 29.39375Q96.37813 28.39375 95.08125 28.39375Q93.75313 28.39375 92.87813 29.39375Q92.01875 30.378124 92.01875 32.3625ZM108.65938 37.55L108.65938 36.01875Q107.45625 37.784374 105.37813 37.784374Q104.45625 37.784374 103.65938 37.440624Q102.8625 37.08125 102.47188 36.55Q102.09688 36.01875 101.94063 35.2375Q101.83125 34.721874 101.83125 33.596874L101.83125 27.175L103.58125 27.175L103.58125 32.925Q103.58125 34.3 103.69063 34.784374Q103.8625 35.471874 104.39375 35.878124Q104.94063 36.26875 105.72188 36.26875Q106.51875 36.26875 107.20625 35.8625Q107.90938 35.45625 108.19063 34.76875Q108.4875 34.065624 108.4875 32.7375L108.4875 27.175L110.2375 27.175L110.2375 37.55L108.65938 37.55ZM118.59688 37.55L118.59688 36.2375Q117.6125 37.784374 115.69063 37.784374Q114.45625 37.784374 113.40938 37.096874Q112.37813 36.409374 111.8 35.190624Q111.2375 33.971874 111.2375 32.378124Q111.2375 30.815624 111.75313 29.55Q112.26875 28.284374 113.3 27.6125Q114.34688 26.940624 115.6125 26.940624Q116.55 26.940624 117.28438 27.346874Q118.01875 27.7375 118.4875 28.3625L118.4875 23.2375L120.22188 23.2375L120.22188 37.55L118.59688 37.55ZM113.03438 32.378124Q113.03438 34.3625 113.87813 35.346874Q114.72188 36.33125 115.8625 36.33125Q117.01875 36.33125 117.81563 35.39375Q118.62813 34.45625 118.62813 32.51875Q118.62813 30.39375 117.8 29.39375Q116.9875 28.39375 115.78438 28.39375Q114.6125 28.39375 113.81563 29.3625Q113.03438 30.315624 113.03438 32.378124ZM129.08125 37.55L129.08125 23.2375L131.01875 23.2375L138.53438 34.471874L138.53438 23.2375L140.34688 23.2375L140.34688 37.55L138.40938 37.55L130.89375 26.3L130.89375 37.55L129.08125 37.55ZM148.64375 36.26875Q147.65938 37.096874 146.75313 37.440624Q145.84688 37.784374 144.81563 37.784374Q143.1125 37.784374 142.19063 36.95625Q141.26875 36.1125 141.26875 34.815624Q141.26875 34.05 141.6125 33.425Q141.97188 32.8 142.53438 32.425Q143.09688 32.034374 143.8 31.83125Q144.31563 31.70625 145.3625 31.565624Q147.4875 31.315624 148.4875 30.971874Q148.50313 30.6125 148.50313 30.503124Q148.50313 29.440624 148.00313 28.9875Q147.33125 28.39375 146.00313 28.39375Q144.75313 28.39375 144.15938 28.83125Q143.58125 29.26875 143.3 30.378124L141.58125 30.14375Q141.81563 29.034374 142.34688 28.3625Q142.87813 27.675 143.89375 27.315624Q144.90938 26.940624 146.25313 26.940624Q147.58125 26.940624 148.40938 27.253124Q149.2375 27.565624 149.62813 28.05Q150.01875 28.51875 150.175 29.2375Q150.26875 29.690624 150.26875 30.8625L150.26875 33.20625Q150.26875 35.659374 150.37813 36.315624Q150.4875 36.95625 150.83125 37.55L148.9875 37.55Q148.72188 37.003124 148.64375 36.26875ZM148.4875 32.346874Q147.53438 32.7375 145.6125 33.003124Q144.53438 33.159374 144.08125 33.3625Q143.64375 33.55 143.39375 33.925Q143.14375 34.3 143.14375 34.76875Q143.14375 35.471874 143.675 35.940624Q144.20625 36.409374 145.2375 36.409374Q146.25313 36.409374 147.03438 35.971874Q147.83125 35.51875 148.20625 34.753124Q148.4875 34.14375 148.4875 32.9875L148.4875 32.346874ZM156.70625 35.971874L156.95625 37.534374Q156.22188 37.690624 155.62813 37.690624Q154.675 37.690624 154.14375 37.39375Q153.62813 37.08125 153.40938 36.596874Q153.19063 36.096874 153.19063 34.51875L153.19063 28.55L151.90938 28.55L151.90938 27.175L153.19063 27.175L153.19063 24.6125L154.94063 23.55L154.94063 27.175L156.70625 27.175L156.70625 28.55L154.94063 28.55L154.94063 34.6125Q154.94063 35.3625 155.03438 35.58125Q155.12813 35.784374 155.33125 35.925Q155.55 36.05 155.94063 36.05Q156.22188 36.05 156.70625 35.971874ZM158.87813 25.253124L158.87813 23.2375L160.64375 23.2375L160.64375 25.253124L158.87813 25.253124ZM158.87813 37.55L158.87813 27.175L160.64375 27.175L160.64375 37.55L158.87813 37.55ZM165.75313 37.55L161.8 27.175L163.65938 27.175L165.89375 33.39375Q166.25313 34.39375 166.55 35.471874Q166.78438 34.659374 167.20625 33.503124L169.50313 27.175L171.31563 27.175L167.39375 37.55L165.75313 37.55ZM178.97188 34.20625L180.78438 34.440624Q180.3625 36.01875 179.19063 36.909374Q178.03438 37.784374 176.22188 37.784374Q173.95625 37.784374 172.6125 36.39375Q171.28438 34.9875 171.28438 32.45625Q171.28438 29.83125 172.62813 28.39375Q173.97188 26.940624 176.12813 26.940624Q178.20625 26.940624 179.51875 28.3625Q180.84688 29.76875 180.84688 32.346874Q180.84688 32.503124 180.83125 32.815624L173.09688 32.815624Q173.19063 34.51875 174.06563 35.425Q174.94063 36.33125 176.2375 36.33125Q177.20625 36.33125 177.87813 35.83125Q178.56563 35.315624 178.97188 34.20625ZM173.19063 31.3625L178.9875 31.3625Q178.87813 30.065624 178.33125 29.409374Q177.4875 28.39375 176.14375 28.39375Q174.94063 28.39375 174.1125 29.20625Q173.28438 30.003124 173.19063 31.3625ZM191.75313 37.55L187.8 27.175L189.65938 27.175L191.89375 33.39375Q192.25313 34.39375 192.55 35.471874Q192.78438 34.659374 193.20625 33.503124L195.50313 27.175L197.31563 27.175L193.39375 37.55L191.75313 37.55ZM197.15938 34.45625L198.90938 34.175Q199.05 35.221874 199.72188 35.784374Q200.39375 36.33125 201.59688 36.33125Q202.8 36.33125 203.37813 35.846874Q203.97188 35.346874 203.97188 34.690624Q203.97188 34.096874 203.45625 33.753124Q203.09688 33.51875 201.65938 33.159374Q199.72188 32.659374 198.97188 32.315624Q198.2375 31.95625 197.84688 31.33125Q197.45625 30.690624 197.45625 29.925Q197.45625 29.2375 197.76875 28.64375Q198.09688 28.05 198.64375 27.659374Q199.05 27.3625 199.75313 27.159374Q200.47188 26.940624 201.28438 26.940624Q202.50313 26.940624 203.425 27.3Q204.34688 27.64375 204.78438 28.253124Q205.22188 28.846874 205.39375 29.846874L203.675 30.08125Q203.55 29.284374 202.9875 28.846874Q202.425 28.39375 201.40938 28.39375Q200.19063 28.39375 199.675 28.8Q199.15938 29.190624 199.15938 29.721874Q199.15938 30.065624 199.37813 30.346874Q199.58125 30.628124 200.05 30.815624Q200.31563 30.909374 201.59688 31.253124Q203.47188 31.753124 204.20625 32.08125Q204.94063 32.39375 205.3625 33.003124Q205.78438 33.596874 205.78438 34.503124Q205.78438 35.378124 205.26875 36.159374Q204.75313 36.940624 203.78438 37.3625Q202.81563 37.784374 201.59688 37.784374Q199.58125 37.784374 198.51875 36.940624Q197.45625 36.096874 197.15938 34.45625ZM208.3625 37.55L208.3625 35.55L210.3625 35.55L210.3625 37.55L208.3625 37.55ZM220.01875 37.55L220.01875 23.2375L221.90938 23.2375L221.90938 35.8625L228.95625 35.8625L228.95625 37.55L220.01875 37.55ZM237.97188 34.20625L239.78438 34.440624Q239.3625 36.01875 238.19063 36.909374Q237.03438 37.784374 235.22188 37.784374Q232.95625 37.784374 231.6125 36.39375Q230.28438 34.9875 230.28438 32.45625Q230.28438 29.83125 231.62813 28.39375Q232.97188 26.940624 235.12813 26.940624Q237.20625 26.940624 238.51875 28.3625Q239.84688 29.76875 239.84688 32.346874Q239.84688 32.503124 239.83125 32.815624L232.09688 32.815624Q232.19063 34.51875 233.06563 35.425Q233.94063 36.33125 235.2375 36.33125Q236.20625 36.33125 236.87813 35.83125Q237.56563 35.315624 237.97188 34.20625ZM232.19063 31.3625L237.9875 31.3625Q237.87813 30.065624 237.33125 29.409374Q236.4875 28.39375 235.14375 28.39375Q233.94063 28.39375 233.1125 29.20625Q232.28438 30.003124 232.19063 31.3625ZM241.55 38.409374L243.25313 38.659374Q243.3625 39.45625 243.84688 39.815624Q244.50313 40.3 245.64375 40.3Q246.8625 40.3 247.51875 39.815624Q248.19063 39.33125 248.425 38.45625Q248.56563 37.909374 248.55 36.190624Q247.39375 37.55 245.675 37.55Q243.53438 37.55 242.3625 36.003124Q241.19063 34.45625 241.19063 32.3Q241.19063 30.815624 241.72188 29.565624Q242.26875 28.315624 243.28438 27.628124Q244.31563 26.940624 245.69063 26.940624Q247.51875 26.940624 248.72188 28.425L248.72188 27.175L250.33125 27.175L250.33125 36.14375Q250.33125 38.565624 249.83125 39.565624Q249.34688 40.58125 248.26875 41.159374Q247.20625 41.753124 245.64375 41.753124Q243.8 41.753124 242.64375 40.925Q241.50313 40.096874 241.55 38.409374ZM243.00313 32.175Q243.00313 34.221874 243.81563 35.159374Q244.62813 36.096874 245.84688 36.096874Q247.05 36.096874 247.8625 35.159374Q248.69063 34.221874 248.69063 32.2375Q248.69063 30.33125 247.84688 29.3625Q247.00313 28.39375 245.81563 28.39375Q244.64375 28.39375 243.81563 29.346874Q243.00313 30.3 243.00313 32.175ZM259.64374 36.26875Q258.65936 37.096874 257.7531 37.440624Q256.84686 37.784374 255.81563 37.784374Q254.1125 37.784374 253.19063 36.95625Q252.26875 36.1125 252.26875 34.815624Q252.26875 34.05 252.6125 33.425Q252.97188 32.8 253.53438 32.425Q254.09688 32.034374 254.8 31.83125Q255.31563 31.70625 256.3625 31.565624Q258.4875 31.315624 259.4875 30.971874Q259.5031 30.6125 259.5031 30.503124Q259.5031 29.440624 259.0031 28.9875Q258.33124 28.39375 257.0031 28.39375Q255.75313 28.39375 255.15938 28.83125Q254.58125 29.26875 254.3 30.378124L252.58125 30.14375Q252.81563 29.034374 253.34688 28.3625Q253.87813 27.675 254.89375 27.315624Q255.90938 26.940624 257.2531 26.940624Q258.58124 26.940624 259.40936 27.253124Q260.2375 27.565624 260.6281 28.05Q261.01874 28.51875 261.175 29.2375Q261.26874 29.690624 261.26874 30.8625L261.26874 33.20625Q261.26874 35.659374 261.3781 36.315624Q261.4875 36.95625 261.83124 37.55L259.9875 37.55Q259.72186 37.003124 259.64374 36.26875ZM259.4875 32.346874Q258.53436 32.7375 256.6125 33.003124Q255.53438 33.159374 255.08125 33.3625Q254.64375 33.55 254.39375 33.925Q254.14375 34.3 254.14375 34.76875Q254.14375 35.471874 254.675 35.940624Q255.20625 36.409374 256.2375 36.409374Q257.2531 36.409374 258.03436 35.971874Q258.83124 35.51875 259.20624 34.753124Q259.4875 34.14375 259.4875 32.9875L259.4875 32.346874ZM270.64374 33.753124L272.3625 33.971874Q272.08124 35.76875 270.90936 36.784374Q269.7531 37.784374 268.05 37.784374Q265.925 37.784374 264.6281 36.39375Q263.33124 35.003124 263.33124 32.409374Q263.33124 30.721874 263.8781 29.471874Q264.4406 28.20625 265.58124 27.58125Q266.72186 26.940624 268.0656 26.940624Q269.7531 26.940624 270.8156 27.8Q271.89374 28.659374 272.20624 30.221874L270.4875 30.4875Q270.2531 29.440624 269.6281 28.925Q269.0031 28.39375 268.1281 28.39375Q266.8 28.39375 265.97186 29.346874Q265.14374 30.3 265.14374 32.346874Q265.14374 34.440624 265.9406 35.39375Q266.7375 36.33125 268.03436 36.33125Q269.0656 36.33125 269.7531 35.70625Q270.45624 35.065624 270.64374 33.753124ZM273.78436 41.55L273.59686 39.89375Q274.175 40.05 274.59686 40.05Q275.1906 40.05 275.53436 39.846874Q275.89374 39.659374 276.1125 39.315624Q276.28436 39.05 276.65936 38.003124Q276.70624 37.846874 276.8156 37.565624L272.8781 27.175L274.76874 27.175L276.925 33.190624Q277.34686 34.33125 277.675 35.58125Q277.9875 34.378124 278.39374 33.221874L280.6125 27.175L282.3781 27.175L278.425 37.721874Q277.8 39.440624 277.4406 40.08125Q276.97186 40.95625 276.3625 41.346874Q275.76874 41.753124 274.925 41.753124Q274.40936 41.753124 273.78436 41.55Z" fill-rule="nonzero"/></svg>